<svg xmlns="http://www.w3.org/2000/svg" version="1.1" xmlns:xlink="http://www.w3.org/1999/xlink" xmlns:svgjs="http://svgjs.dev/svgjs" width="1500" height="1500" viewBox="0 0 1500 1500"><rect width="1500" height="1500" fill="#ffffff"></rect><g transform="matrix(0.6666666666666666,0,0,0.6666666666666666,248.46768692610698,341.01827956989246)"><svg viewBox="0 0 304 248" data-background-color="#ffffff" preserveAspectRatio="xMidYMid meet" height="1223" width="1500" xmlns="http://www.w3.org/2000/svg" xmlns:xlink="http://www.w3.org/1999/xlink"><g id="tight-bounds" transform="matrix(1,0,0,1,0.4658231744634804,0.4000000000000057)"><svg viewBox="0 0 303.06835365107304 247.2" height="247.2" width="303.06835365107304"><g><svg viewBox="0 0 395.52 322.6088861543325" height="247.2" width="303.06835365107304"><g transform="matrix(1,0,0,1,0,188.23671112652113)"><svg viewBox="0 0 395.52 134.37217502781138" height="134.37217502781138" width="395.52"><g id="textblocktransform"><svg viewBox="0 0 395.52 134.37217502781138" height="134.37217502781138" width="395.52" id="textblock"><g><svg viewBox="0 0 395.52 89.39748143364547" height="89.39748143364547" width="395.52"><g transform="matrix(1,0,0,1,0,0)"><svg width="395.52" viewBox="3.1 -35 154.84 35" height="89.39748143364547" data-palette-color="#1f55b3"><path d="M3.1-35L20.4-35 20.4-31 7.5-31 7.5-17.7Q9.15-18.4 11.23-18.8 13.3-19.2 15.45-19.28 17.6-19.35 19.35-19.05L19.35-19.05 19.35-15.3 18.95-15Q17.6-15.35 15.58-15.35 13.55-15.35 11.4-15 9.25-14.65 7.5-13.9L7.5-13.9 7.5 0 3.1 0 3.1-35ZM24.7 0L24.7-35 29.1-35 29.1 0 24.7 0ZM54.1-6.7L53.9-35 58.25-35 58.25 0 52.2 0 40.15-28.15 39.5-28.15 39.6 0 35.3 0 35.3-35 41.35-35 53.45-6.7 54.1-6.7ZM73.44-35L73.44-35 64.49-35 64.49 0 73.44 0Q77.64 0 80.97-1.88 84.29-3.75 86.22-7.63 88.14-11.5 88.14-17.5L88.14-17.5Q88.14-23.55 86.22-27.4 84.29-31.25 80.97-33.13 77.64-35 73.44-35ZM73.34-4.1L73.34-4.1 68.89-4.1 68.89-30.9 73.34-30.9Q77.94-30.9 80.79-27.45 83.64-24 83.64-17.5L83.64-17.5Q83.64-11.15 80.82-7.63 77.99-4.1 73.34-4.1ZM95.04 0L90.54 0 90.54-0.9 99.04-35 108.94-34.95 117.39-0.9 117.39 0 112.89 0 110.19-11.25 97.74-11.25 95.04 0ZM102.24-30.9L98.54-15.15 109.44-15.15 105.69-30.9 102.24-30.9ZM121.24 0L121.24-35 125.64-35 125.64-4 137.49-4 137.49 0 121.24 0ZM141.69 0L141.69-35 146.09-35 146.09-4 157.94-4 157.94 0 141.69 0Z" opacity="1" transform="matrix(1,0,0,1,0,0)" fill="#000000" class="wordmark-text-0" data-fill-palette-color="primary" id="text-0"></path></svg></g></svg></g><g transform="matrix(1,0,0,1,69.21599999999998,110.50208126057476)"><svg viewBox="0 0 257.088 23.870093767236625" height="23.870093767236625" width="257.088"><g transform="matrix(1,0,0,1,0,0)"><svg width="257.088" viewBox="3 -39.65 545.73 50.5" height="23.870093767236625" data-palette-color="#ff585f"><path d="M24.7 0L18.3 0 18.3-15.5 9.35-15.5 9.35 0 3 0 3-34.55 9.35-34.55 9.35-20.6 18.3-20.6 18.3-34.55 24.7-34.55 24.7 0ZM49.35-13.85Q49.35-13.4 49.2-11.3L49.2-11.3 35.55-11.3Q35.75-7.2 36.97-5.58 38.2-3.95 40.45-3.95L40.45-3.95Q42-3.95 43.25-4.48 44.5-5 45.95-6.15L45.95-6.15 48.5-2.65Q45 0.75 40.1 0.75L40.1 0.75Q34.9 0.75 32.12-2.85 29.35-6.45 29.35-13L29.35-13Q29.35-19.55 32-23.35 34.65-27.15 39.5-27.15L39.5-27.15Q44.15-27.15 46.75-23.78 49.35-20.4 49.35-13.85L49.35-13.85ZM43.35-15.3L43.35-15.65Q43.35-19.4 42.45-21.13 41.55-22.85 39.55-22.85L39.55-22.85Q37.7-22.85 36.72-21.18 35.75-19.5 35.55-15.3L35.55-15.3 43.35-15.3ZM65.3-27.1Q66.45-27.1 67.34-26.75L67.34-26.75 66.34-20.85Q65.34-21.1 64.5-21.1L64.5-21.1Q62.59-21.1 61.5-19.45 60.4-17.8 59.8-14.55L59.8-14.55 59.8 0 53.65 0 53.65-26.45 59-26.45 59.45-21.85Q61.3-27.1 65.3-27.1L65.3-27.1ZM89.04-13.85Q89.04-13.4 88.89-11.3L88.89-11.3 75.24-11.3Q75.44-7.2 76.67-5.58 77.89-3.95 80.14-3.95L80.14-3.95Q81.69-3.95 82.94-4.48 84.19-5 85.64-6.15L85.64-6.15 88.19-2.65Q84.69 0.75 79.79 0.75L79.79 0.75Q74.59 0.75 71.82-2.85 69.04-6.45 69.04-13L69.04-13Q69.04-19.55 71.69-23.35 74.34-27.15 79.19-27.15L79.19-27.15Q83.84-27.15 86.44-23.78 89.04-20.4 89.04-13.85L89.04-13.85ZM83.04-15.3L83.04-15.65Q83.04-19.4 82.14-21.13 81.24-22.85 79.24-22.85L79.24-22.85Q77.39-22.85 76.42-21.18 75.44-19.5 75.24-15.3L75.24-15.3 83.04-15.3ZM121.84-26.45L114.84 0.1Q113.54 4.9 110.64 7.65 107.74 10.4 102.89 10.85L102.89 10.85 102.19 6.5Q105.34 5.85 106.91 4.42 108.49 3 109.39 0L109.39 0 107.09 0 100.39-26.45 106.64-26.45 111.04-4.1 115.74-26.45 121.84-26.45ZM134.13-27.15Q139.13-27.15 141.91-23.65 144.69-20.15 144.69-13.25L144.69-13.25Q144.69-6.65 141.88-2.95 139.09 0.75 134.13 0.75L134.13 0.75Q129.19 0.75 126.39-2.88 123.59-6.5 123.59-13.25L123.59-13.25Q123.59-19.95 126.39-23.55 129.19-27.15 134.13-27.15L134.13-27.15ZM134.13-22.5Q131.99-22.5 130.99-20.38 129.99-18.25 129.99-13.25L129.99-13.25Q129.99-8.2 130.99-6.08 131.99-3.95 134.13-3.95L134.13-3.95Q136.28-3.95 137.28-6.08 138.28-8.2 138.28-13.25L138.28-13.25Q138.28-18.3 137.28-20.4 136.28-22.5 134.13-22.5L134.13-22.5ZM167.38-26.45L167.38 0 162.03 0 161.73-3.35Q160.48-1.3 158.93-0.28 157.38 0.75 155.33 0.75L155.33 0.75Q152.43 0.75 150.76-1.3 149.08-3.35 149.08-6.65L149.08-6.65 149.08-26.45 155.23-26.45 155.23-7Q155.23-3.9 157.33-3.9L157.33-3.9Q158.53-3.9 159.48-4.83 160.43-5.75 161.23-7.45L161.23-7.45 161.23-26.45 167.38-26.45ZM204.98-26.45L210.68-26.45 206.13 0 198.63 0 195.68-20.85 192.78 0 185.33 0 180.68-26.45 186.63-26.45 189.33-4.6 192.68-26.45 198.93-26.45 202.13-4.6 204.98-26.45ZM214.17-26.45L220.32-26.45 220.32 0 214.17 0 214.17-26.45ZM217.22-39.65Q218.88-39.65 219.9-38.6 220.92-37.55 220.92-35.9L220.92-35.9Q220.92-34.3 219.9-33.25 218.88-32.2 217.22-32.2L217.22-32.2Q215.57-32.2 214.55-33.25 213.52-34.3 213.52-35.9L213.52-35.9Q213.52-37.55 214.55-38.6 215.57-39.65 217.22-39.65L217.22-39.65ZM231.62 0.75Q228.92 0.75 227.35-0.93 225.77-2.6 225.77-5.4L225.77-5.4 225.77-37.05 231.92-37.7 231.92-5.65Q231.92-5 232.22-4.6 232.52-4.2 233.12-4.2L233.12-4.2Q233.47-4.2 233.8-4.3 234.12-4.4 234.22-4.4L234.22-4.4 235.42-0.2Q233.72 0.75 231.62 0.75L231.62 0.75ZM244.07 0.75Q241.37 0.75 239.79-0.93 238.22-2.6 238.22-5.4L238.22-5.4 238.22-37.05 244.37-37.7 244.37-5.65Q244.37-5 244.67-4.6 244.97-4.2 245.57-4.2L245.57-4.2Q245.92-4.2 246.24-4.3 246.57-4.4 246.67-4.4L246.67-4.4 247.87-0.2Q246.17 0.75 244.07 0.75L244.07 0.75ZM270.46-33.05Q269.06-33.05 268.39-32.3 267.71-31.55 267.71-30L267.71-30 267.71-26.45 272.76-26.45 272.06-22 267.71-22 267.71 0 261.56 0 261.56-22 258.26-22 258.26-26.45 261.56-26.45 261.56-29.8Q261.56-33.4 263.66-35.55 265.76-37.7 269.66-37.7L269.66-37.7Q272.71-37.7 275.56-36.2L275.56-36.2 273.86-32.2Q272.11-33.05 270.46-33.05L270.46-33.05ZM275.56-26.45L281.71-26.45 281.71 0 275.56 0 275.56-26.45ZM278.61-39.65Q280.26-39.65 281.29-38.6 282.31-37.55 282.31-35.9L282.31-35.9Q282.31-34.3 281.29-33.25 280.26-32.2 278.61-32.2L278.61-32.2Q276.96-32.2 275.94-33.25 274.91-34.3 274.91-35.9L274.91-35.9Q274.91-37.55 275.94-38.6 276.96-39.65 278.61-39.65L278.61-39.65ZM299.76-27.15Q302.61-27.15 304.26-25.1 305.91-23.05 305.91-19.6L305.91-19.6 305.91 0 299.76 0 299.76-18.9Q299.76-20.8 299.24-21.63 298.71-22.45 297.71-22.45L297.71-22.45Q295.61-22.45 293.56-18.5L293.56-18.5 293.56 0 287.41 0 287.41-26.45 292.76-26.45 293.21-23Q294.56-25.1 296.08-26.13 297.61-27.15 299.76-27.15L299.76-27.15ZM324.41-37.7L330.56-37.05 330.56 0 325.11 0 324.81-3.05Q322.46 0.75 318.76 0.75L318.76 0.75Q314.66 0.75 312.48-2.93 310.31-6.6 310.31-13.2L310.31-13.2Q310.31-17.4 311.43-20.58 312.56-23.75 314.56-25.45 316.56-27.15 319.16-27.15L319.16-27.15Q322.36-27.15 324.41-24.5L324.41-24.5 324.41-37.7ZM320.51-3.9Q321.66-3.9 322.58-4.7 323.51-5.5 324.41-7L324.41-7 324.41-19.85Q322.81-22.55 320.76-22.55L320.76-22.55Q316.71-22.55 316.71-13.25L316.71-13.25Q316.71-8.2 317.71-6.05 318.71-3.9 320.51-3.9L320.51-3.9ZM364.95-13.85Q364.95-13.4 364.8-11.3L364.8-11.3 351.15-11.3Q351.35-7.2 352.58-5.58 353.8-3.95 356.05-3.95L356.05-3.95Q357.6-3.95 358.85-4.48 360.1-5 361.55-6.15L361.55-6.15 364.1-2.65Q360.6 0.75 355.7 0.75L355.7 0.75Q350.5 0.75 347.73-2.85 344.95-6.45 344.95-13L344.95-13Q344.95-19.55 347.6-23.35 350.25-27.15 355.1-27.15L355.1-27.15Q359.75-27.15 362.35-23.78 364.95-20.4 364.95-13.85L364.95-13.85ZM358.95-15.3L358.95-15.65Q358.95-19.4 358.05-21.13 357.15-22.85 355.15-22.85L355.15-22.85Q353.3-22.85 352.33-21.18 351.35-19.5 351.15-15.3L351.15-15.3 358.95-15.3ZM381.65-26.45L387.7-26.45 380.8 0 373.55 0 366.45-26.45 372.8-26.45 377.15-4.95 381.65-26.45ZM409.45-13.85Q409.45-13.4 409.3-11.3L409.3-11.3 395.65-11.3Q395.85-7.2 397.07-5.58 398.3-3.95 400.55-3.95L400.55-3.95Q402.1-3.95 403.35-4.48 404.6-5 406.05-6.15L406.05-6.15 408.6-2.65Q405.1 0.75 400.2 0.75L400.2 0.75Q395 0.75 392.22-2.85 389.45-6.45 389.45-13L389.45-13Q389.45-19.55 392.1-23.35 394.75-27.15 399.6-27.15L399.6-27.15Q404.25-27.15 406.85-23.78 409.45-20.4 409.45-13.85L409.45-13.85ZM403.45-15.3L403.45-15.65Q403.45-19.4 402.55-21.13 401.65-22.85 399.65-22.85L399.65-22.85Q397.8-22.85 396.82-21.18 395.85-19.5 395.65-15.3L395.65-15.3 403.45-15.3ZM425.4-27.1Q426.55-27.1 427.45-26.75L427.45-26.75 426.45-20.85Q425.45-21.1 424.6-21.1L424.6-21.1Q422.7-21.1 421.6-19.45 420.5-17.8 419.9-14.55L419.9-14.55 419.9 0 413.75 0 413.75-26.45 419.1-26.45 419.55-21.85Q421.4-27.1 425.4-27.1L425.4-27.1ZM449.14-13.85Q449.14-13.4 448.99-11.3L448.99-11.3 435.34-11.3Q435.54-7.2 436.77-5.58 437.99-3.95 440.24-3.95L440.24-3.95Q441.79-3.95 443.04-4.48 444.29-5 445.74-6.15L445.74-6.15 448.29-2.65Q444.79 0.75 439.89 0.75L439.89 0.75Q434.69 0.75 431.92-2.85 429.14-6.45 429.14-13L429.14-13Q429.14-19.55 431.79-23.35 434.44-27.15 439.29-27.15L439.29-27.15Q443.94-27.15 446.54-23.78 449.14-20.4 449.14-13.85L449.14-13.85ZM443.14-15.3L443.14-15.65Q443.14-19.4 442.24-21.13 441.34-22.85 439.34-22.85L439.34-22.85Q437.49-22.85 436.52-21.18 435.54-19.5 435.34-15.3L435.34-15.3 443.14-15.3ZM464.59-5L466.74-1.2Q464.29 0.75 460.99 0.75L460.99 0.75Q457.54 0.75 455.74-1.23 453.94-3.2 453.94-6.6L453.94-6.6 453.94-22 450.84-22 450.84-26.45 453.94-26.45 453.94-32.3 460.09-33.05 460.09-26.45 465.09-26.45 464.49-22 460.09-22 460.09-6.6Q460.09-4.2 462.14-4.2L462.14-4.2Q462.79-4.2 463.29-4.38 463.79-4.55 464.59-5L464.59-5ZM481.64-27.15Q484.49-27.15 486.14-25.1 487.79-23.05 487.79-19.6L487.79-19.6 487.79 0 481.64 0 481.64-18.9Q481.64-20.8 481.11-21.63 480.59-22.45 479.59-22.45L479.59-22.45Q477.49-22.45 475.44-18.5L475.44-18.5 475.44 0 469.29 0 469.29-37 475.44-37.65 475.44-23.3Q476.69-25.25 478.16-26.2 479.64-27.15 481.64-27.15L481.64-27.15ZM493.34-26.45L499.49-26.45 499.49 0 493.34 0 493.34-26.45ZM496.39-39.65Q498.04-39.65 499.06-38.6 500.09-37.55 500.09-35.9L500.09-35.9Q500.09-34.3 499.06-33.25 498.04-32.2 496.39-32.2L496.39-32.2Q494.74-32.2 493.71-33.25 492.69-34.3 492.69-35.9L492.69-35.9Q492.69-37.55 493.71-38.6 494.74-39.65 496.39-39.65L496.39-39.65ZM517.53-27.15Q520.38-27.15 522.03-25.1 523.68-23.05 523.68-19.6L523.68-19.6 523.68 0 517.53 0 517.53-18.9Q517.53-20.8 517.01-21.63 516.48-22.45 515.48-22.45L515.48-22.45Q513.38-22.45 511.33-18.5L511.33-18.5 511.33 0 505.18 0 505.18-26.45 510.53-26.45 510.98-23Q512.33-25.1 513.86-26.13 515.38-27.15 517.53-27.15L517.53-27.15ZM547.18-29.85L548.73-25.1Q547.68-24.6 546.21-24.4 544.73-24.2 542.53-24.2L542.53-24.2Q544.63-23.2 545.65-21.53 546.68-19.85 546.68-17.4L546.68-17.4Q546.68-13.4 544.23-10.95 541.78-8.5 537.58-8.5L537.58-8.5Q536.33-8.5 535.03-8.9L535.03-8.9Q534.13-8.15 534.13-6.85L534.13-6.85Q534.13-5.85 534.68-5.35 535.23-4.85 536.73-4.85L536.73-4.85 539.53-4.85Q543.53-4.85 545.88-2.78 548.23-0.7 548.23 2.5L548.23 2.5Q548.23 6.3 545.3 8.58 542.38 10.85 536.98 10.85L536.98 10.85Q531.28 10.85 529 8.75 526.73 6.65 526.73 2.6L526.73 2.6 532.18 2.6Q532.18 4.75 533.18 5.65 534.18 6.55 537.03 6.55L537.03 6.55Q539.78 6.55 540.93 5.6 542.08 4.65 542.08 2.9L542.08 2.9Q542.08 1.2 541.13 0.4 540.18-0.4 538.18-0.4L538.18-0.4 536.28-0.4Q532.48-0.4 530.73-1.75 528.98-3.1 528.98-5.45L528.98-5.45Q528.98-6.8 529.71-8.03 530.43-9.25 531.68-10.2L531.68-10.2Q529.63-11.5 528.68-13.3 527.73-15.1 527.73-17.7L527.73-17.7Q527.73-22.05 530.33-24.58 532.93-27.1 537.33-27.1L537.33-27.1Q540.58-27.1 542.71-27.8 544.83-28.5 547.18-29.85L547.18-29.85ZM537.33-23Q535.58-23 534.68-21.75 533.78-20.5 533.78-17.8L533.78-17.8Q533.78-15.25 534.68-13.88 535.58-12.5 537.28-12.5L537.28-12.5Q539.03-12.5 539.88-13.73 540.73-14.95 540.73-17.85L540.73-17.85Q540.73-20.55 539.9-21.78 539.08-23 537.33-23L537.33-23Z" opacity="1" transform="matrix(1,0,0,1,0,0)" fill="#000000" class="slogan-text-1" data-fill-palette-color="secondary" id="text-1"></path></svg></g></svg></g></svg></g></svg></g><g transform="matrix(1,0,0,1,114.19394435020408,0)"><svg viewBox="0 0 167.13211129959183 167.13211129959183" height="167.13211129959183" width="167.13211129959183"><g><svg></svg></g><g id="icon-0"><svg viewBox="0 0 167.13211129959183 167.13211129959183" height="167.13211129959183" width="167.13211129959183"><g><path transform="scale(1.67132,1.67132)" d="M30 100c-16.569 0-30-13.431-30-30v-40c0-16.569 13.431-30 30-30h40c16.569 0 30 13.431 30 30v40c0 16.569-13.431 30-30 30z" fill="#000000" fill-rule="nonzero" stroke="none" stroke-width="1" stroke-linecap="butt" stroke-linejoin="miter" stroke-miterlimit="10" stroke-dasharray="" stroke-dashoffset="0" font-family="none" font-weight="none" font-size="none" text-anchor="none" style="mix-blend-mode: normal" data-fill-palette-color="accent"></path></g><g transform="matrix(1,0,0,1,33.42642225991837,33.42642225991837)"><svg viewBox="0 0 100.27926677975509 100.27926677975509" height="100.27926677975509" width="100.27926677975509"><g><svg xmlns="http://www.w3.org/2000/svg" xmlns:xlink="http://www.w3.org/1999/xlink" version="1.0" x="0" y="0" viewBox="0 0 32 32" enable-background="new 0 0 32 32" xml:space="preserve" height="100.27926677975509" width="100.27926677975509" class="icon-dxe-0" data-fill-palette-color="quaternary" id="dxe-0"><path d="M30 28C19.051 28 12.156 18.914 12 8V2A2 2 0 0 0 10 0H2A2 2 0 0 0 0 2V32H2L6 22 10 32H30S32 32 32 30 30 28 30 28" fill="#ffffff" data-fill-palette-color="quaternary"></path></svg></g></svg></g></svg></g></svg></g><g></g></svg></g><defs></defs></svg><rect width="303.06835365107304" height="247.2" fill="none" stroke="none" visibility="hidden"></rect></g></svg></g></svg>